/* XPM */
static char * slime1_xpm[] = {
"14 23 7 1",
" 	c #00FF2F",
".	c #FF778C",
"+	c #E15B50",
"@	c #904D37",
"#	c #FFFFFF",
"$	c #FF9FAE",
"%	c #242326",
"              ",
"              ",
"              ",
"              ",
"              ",
"              ",
"              ",
"              ",
"              ",
"              ",
"              ",
"              ",
"      ....    ",
"    ....+@    ",
"   ..##...+   ",
"  ..###$$$.@  ",
" ..%##$$$%$+@ ",
" .###++$$$$+@ ",
" .$$$$$$$$$+@ ",
" ..$$$$$$$+@@ ",
"  ......++@@  ",
"   ++++++@@   ",
"              "};
