/* XPM */
static char * slime3_xpm[] = {
"14 23 7 1",
" 	c #00FF2F",
".	c #FF778C",
"+	c #E15B50",
"@	c #FFFFFF",
"#	c #FF9FAE",
"$	c #904D37",
"%	c #242326",
"              ",
"              ",
"              ",
"              ",
"              ",
"              ",
"              ",
"              ",
"    .....+    ",
"   ..@@#..+   ",
"  .@@@@###.$  ",
"  .%@@###%#$  ",
"  .@@++####$  ",
"  .########$  ",
"  .########$  ",
"  .#######+$  ",
"  ..#####++$  ",
"   .....++$   ",
"    +++++$    ",
"              ",
"              ",
"              ",
"              "};
