/* XPM */
static char * slime4_xpm[] = {
"14 23 7 1",
" 	c #00FF2F",
".	c #FF778C",
"+	c #E15B50",
"@	c #FFFFFF",
"#	c #FF9FAE",
"$	c #242326",
"%	c #904D37",
"              ",
"              ",
"              ",
"              ",
"              ",
"              ",
"              ",
"              ",
"              ",
"              ",
"    .....+    ",
"  ..@@####++  ",
"  .@@@#####+  ",
" .@$@####$#+% ",
" .#########+% ",
" .###++####+% ",
" .#########+% ",
"  .#######+%  ",
"   .#####+%   ",
"    +++++%    ",
"              ",
"              ",
"              "};
