/* XPM */
static char * slime6_xpm[] = {
"14 23 8 1",
" 	c #00FF2F",
".	c #FF778C",
"+	c #FFFFFF",
"@	c #FF9FAE",
"#	c #904D37",
"$	c #242326",
"%	c #E15B50",
"&	c #000000",
"              ",
"              ",
"              ",
"              ",
"              ",
"              ",
"              ",
"              ",
"              ",
"              ",
"              ",
"              ",
"              ",
"              ",
"              ",
"              ",
"    ......    ",
"  ...++@@...  ",
" ..+++@@@@@.# ",
"..+$+%%@@$@@%#",
".@@@@@@@@@@@%#",
"..........%%##",
"&%%%%%%%%%%##&"};
